if (_typeface_js && _typeface_js.loadFace) _typeface_js.loadFace({"glyphs":{"宙":{"x_min":147.15625,"x_max":1241.734375,"ha":1389,"o":"m 1241 731 l 1138 731 l 1138 889 l 251 889 l 251 731 l 147 731 l 147 990 l 641 990 l 641 1134 l 747 1134 l 747 990 l 1241 990 l 1241 731 m 1151 -92 l 1045 -92 l 1045 1 l 344 1 l 344 -98 l 237 -98 l 237 663 l 638 663 l 638 851 l 748 851 l 748 663 l 1151 663 l 1151 -92 m 1045 394 l 1045 562 l 748 562 l 748 394 l 1045 394 m 638 562 l 343 562 l 343 394 l 638 394 l 638 562 m 1045 103 l 1045 292 l 748 292 l 748 103 l 1045 103 m 640 103 l 640 292 l 343 292 l 343 103 l 640 103 "},"宇":{"x_min":82.0625,"x_max":1293.265625,"ha":1389,"o":"m 1233 697 l 1123 697 l 1123 898 l 262 898 l 262 697 l 155 697 l 155 1004 l 637 1004 l 637 1166 l 747 1166 l 747 1004 l 1233 1004 l 1233 697 m 1293 344 l 758 344 l 758 13 q 645 -95 758 -95 l 515 -95 l 478 18 q 588 4 547 4 q 644 40 644 4 l 644 344 l 82 344 l 82 445 l 644 445 l 644 646 l 291 646 l 291 748 l 1094 748 l 1094 646 l 758 646 l 758 445 l 1293 445 l 1293 344 "},"ら":{"x_min":200.0625,"x_max":1134.578125,"ha":1389,"o":"m 1016 894 l 951 781 q 552 966 812 887 l 619 1083 q 1016 894 858 996 m 373 527 q 740 604 556 604 q 1022 523 909 604 q 1134 302 1134 442 q 1027 67 1134 158 q 748 -23 920 -23 q 314 37 571 -23 l 324 185 q 596 113 518 126 q 734 99 675 99 q 1009 308 1009 99 q 930 435 1009 389 q 734 480 851 480 q 302 352 541 480 l 200 436 q 417 899 314 728 l 537 838 q 373 527 466 750 "},"興":{"x_min":94.265625,"x_max":1321.078125,"ha":1389,"o":"m 1300 222 l 115 222 l 116 323 l 229 323 l 183 1001 q 410 1147 309 1038 l 469 1083 l 469 1098 l 935 1098 l 935 323 l 1080 323 l 1093 495 l 971 495 l 971 597 l 1097 597 l 1110 750 l 971 750 l 971 849 l 1116 849 l 1126 979 l 954 979 l 954 1078 l 1237 1078 l 1183 323 l 1300 323 l 1300 222 m 470 323 l 470 1058 q 291 947 402 994 l 297 851 l 445 851 l 445 750 l 302 750 l 314 597 l 441 597 l 441 495 l 320 495 l 331 323 l 470 323 m 832 323 l 832 996 l 575 996 l 575 323 l 832 323 m 815 833 l 594 833 l 594 934 l 815 934 l 815 833 m 812 388 l 600 388 l 600 780 l 812 780 l 812 388 m 730 488 l 730 680 l 678 680 l 678 488 l 730 488 m 596 148 q 161 -77 396 -17 l 94 16 q 528 221 320 62 l 596 148 m 1321 8 l 1252 -73 q 801 130 1071 72 l 870 214 q 1321 8 1111 173 "},"出":{"x_min":200.0625,"x_max":1205.78125,"ha":1389,"o":"m 1205 -90 l 1095 -90 l 1095 21 l 309 21 l 309 -90 l 200 -90 l 200 458 l 309 458 l 309 126 l 646 126 l 646 562 l 233 562 l 233 1028 l 343 1028 l 343 663 l 646 663 l 646 1163 l 762 1163 l 762 663 l 1070 663 l 1070 1028 l 1180 1028 l 1180 562 l 762 562 l 762 126 l 1095 126 l 1095 454 l 1205 454 l 1205 -90 "},"ま":{"x_min":174.96875,"x_max":1239.015625,"ha":1389,"o":"m 1239 172 l 1154 54 q 763 259 925 221 q 693 50 763 133 q 495 -33 623 -33 q 302 32 379 -33 q 225 187 225 97 q 317 352 225 288 q 545 416 408 416 q 636 410 597 416 l 636 550 q 200 563 415 550 l 200 689 q 636 674 407 674 l 636 809 q 174 788 381 809 l 174 914 q 636 934 381 934 l 636 1106 l 758 1106 l 758 934 q 1198 914 1006 934 l 1198 788 q 758 809 1011 809 l 758 674 q 1179 689 975 674 l 1179 563 q 758 550 976 550 l 758 396 q 1239 172 1002 338 m 634 286 q 554 288 585 288 q 415 262 469 288 q 360 187 360 236 q 398 123 360 149 q 493 96 435 96 q 600 133 565 96 q 634 286 634 170 "},"さ":{"x_min":136.3125,"x_max":1130.515625,"ha":1389,"o":"m 1130 794 q 807 716 942 743 q 996 440 877 592 l 912 376 q 654 421 778 421 q 433 379 516 421 q 351 265 351 338 q 435 135 351 189 q 662 82 520 82 q 1008 153 836 82 l 1059 33 q 669 -42 884 -42 q 345 43 467 -42 q 223 266 223 128 q 278 415 223 351 q 433 513 332 478 q 654 547 534 547 q 776 534 721 547 q 676 689 712 623 q 169 626 442 641 l 136 759 q 216 758 162 758 q 615 804 391 758 q 501 1053 543 942 l 633 1095 q 748 830 674 973 q 1095 920 927 864 l 1130 794 "},"か":{"x_min":111.21875,"x_max":1190.1875,"ha":1389,"o":"m 620 823 q 725 815 673 823 q 824 778 777 807 q 891 707 871 749 q 916 626 912 665 q 920 531 920 587 q 889 194 920 343 q 799 1 857 45 q 648 -42 742 -42 q 495 -19 592 -42 l 515 111 q 651 80 600 80 q 726 110 695 80 q 776 253 756 141 q 796 536 796 365 q 785 634 796 602 q 732 682 774 667 q 641 698 689 698 l 580 698 q 383 241 465 385 q 230 15 301 96 l 111 86 q 445 691 290 248 q 227 658 335 681 l 214 792 q 488 817 388 815 q 565 1119 556 1028 l 690 1087 q 620 823 653 932 m 1190 571 l 1058 526 q 894 944 1049 744 l 1019 995 q 1190 571 1177 779 "},"能":{"x_min":87.484375,"x_max":1331.921875,"ha":1389,"o":"m 741 758 l 651 701 l 609 779 l 115 752 l 87 859 l 183 862 q 356 1172 285 1010 l 462 1126 q 305 862 372 950 l 551 872 q 465 976 512 931 l 558 1028 q 741 758 677 916 m 1297 797 q 1148 548 1264 548 l 894 548 q 797 590 824 556 q 771 653 771 625 l 771 1133 l 876 1133 l 876 910 q 1205 1065 1084 969 l 1269 986 q 876 807 1132 870 l 876 689 q 947 649 882 649 l 1130 649 q 1195 836 1178 649 l 1297 797 m 663 54 q 641 -22 663 6 q 586 -60 618 -51 q 427 -66 554 -68 l 388 40 q 498 31 465 31 q 558 69 558 31 l 558 200 l 267 200 l 267 -76 l 162 -76 l 162 670 l 663 670 l 663 54 m 558 486 l 558 569 l 267 569 l 267 486 l 558 486 m 558 301 l 558 384 l 267 384 l 267 301 l 558 301 m 1331 173 q 1265 -15 1306 29 q 1165 -61 1224 -61 l 904 -61 q 807 -20 837 -61 q 776 56 776 21 l 776 501 l 881 501 l 881 308 q 1216 458 1074 352 l 1289 380 q 881 204 1121 252 l 881 75 q 929 40 881 40 l 1154 40 q 1203 78 1186 40 q 1228 223 1219 117 l 1331 173 "},"人":{"x_min":98.328125,"x_max":1309.546875,"ha":1389,"o":"m 1309 23 l 1228 -66 q 697 493 849 123 q 181 -62 560 165 l 98 19 q 367 222 252 109 q 547 450 481 335 q 632 703 613 564 q 653 1119 651 842 l 763 1119 q 754 892 764 1033 q 743 668 743 750 q 814 474 743 610 q 1005 221 886 339 q 1309 23 1124 103 "},"い":{"x_min":200.0625,"x_max":1216.640625,"ha":1389,"o":"m 829 333 q 670 44 741 130 q 530 -41 599 -41 q 301 196 402 -41 q 200 730 200 434 q 219 1055 200 902 l 354 1024 q 320 718 320 895 q 355 414 320 560 q 439 179 389 267 q 523 91 489 91 q 609 177 560 91 q 699 398 657 262 l 829 333 m 1216 315 l 1083 291 q 862 959 1063 621 l 986 1009 q 1216 315 1186 631 "},"者":{"x_min":86.125,"x_max":1290.5625,"ha":1389,"o":"m 1290 636 l 804 636 q 612 523 699 565 l 1108 523 l 1108 -88 l 1003 -88 l 1003 -6 l 531 -6 l 531 -88 l 426 -88 l 426 422 l 153 307 l 86 398 q 608 634 394 507 l 161 634 l 161 737 l 594 737 l 594 887 l 294 887 l 294 988 l 594 988 l 594 1161 l 703 1161 l 703 988 l 963 988 l 963 906 q 1113 1083 1049 1004 l 1205 1024 q 941 737 1058 835 l 1290 737 l 1290 636 m 943 887 l 703 887 l 702 737 l 773 737 q 943 887 840 786 m 1003 314 l 1003 423 l 531 423 l 531 314 l 1003 314 m 1003 94 l 1003 212 l 531 212 l 531 94 l 1003 94 "},"身":{"x_min":103.078125,"x_max":1283.09375,"ha":1389,"o":"m 1283 668 q 1034 384 1159 501 l 1034 31 q 996 -52 1034 -18 q 909 -86 958 -86 l 750 -86 l 711 34 l 887 27 q 925 69 925 33 l 925 292 q 180 -42 701 114 l 103 48 q 863 368 619 189 l 233 288 l 172 396 l 345 413 l 345 1037 l 592 1040 q 689 1184 640 1085 l 786 1133 q 720 1041 739 1060 l 1034 1041 l 1034 527 q 1198 739 1186 722 l 1283 668 m 925 849 l 925 939 l 451 939 l 451 849 l 925 849 m 925 651 l 925 748 l 451 748 l 451 651 l 925 651 m 925 467 l 925 550 l 451 550 l 451 422 l 925 467 "},"中":{"x_min":181.75,"x_max":1194.25,"ha":1389,"o":"m 1194 283 l 1084 283 l 1084 377 l 744 377 l 744 -90 l 634 -90 l 634 377 l 294 377 l 291 278 l 181 278 l 181 893 l 634 893 l 634 1147 l 745 1147 l 743 893 l 1194 893 l 1194 283 m 1084 479 l 1084 791 l 744 791 l 744 479 l 1084 479 m 634 479 l 634 791 l 291 791 l 291 479 l 634 479 "},"が":{"x_min":80.703125,"x_max":1310.90625,"ha":1389,"o":"m 1310 944 l 1215 904 q 1148 1090 1189 1019 l 1249 1131 q 1310 944 1288 1055 m 590 823 q 694 815 642 823 q 793 778 746 807 q 861 707 840 749 q 886 626 881 665 q 890 531 890 587 q 858 194 890 343 q 769 1 826 45 q 617 -42 712 -42 q 465 -19 562 -42 l 484 111 q 620 80 570 80 q 695 110 665 80 q 745 253 726 141 q 764 536 764 365 q 754 634 764 602 q 701 682 743 667 q 611 698 659 698 l 550 698 q 352 241 434 385 q 200 15 270 96 l 80 86 q 415 691 259 248 q 197 658 305 681 l 184 792 q 458 817 358 815 q 534 1119 525 1028 l 659 1087 q 590 823 623 932 m 1156 889 l 1061 848 q 994 1034 1035 963 l 1095 1076 q 1156 889 1134 1000 m 1084 566 l 951 536 q 788 947 926 775 l 912 1001 q 1084 566 1054 780 "},"界":{"x_min":75.28125,"x_max":1334.640625,"ha":1389,"o":"m 1334 305 l 1265 205 q 926 372 1028 274 l 926 -94 l 820 -94 l 820 385 l 910 385 q 804 531 834 455 l 606 531 q 139 219 500 302 l 75 315 q 493 531 353 367 l 283 531 l 283 1086 l 1121 1086 l 1121 531 l 919 531 q 1334 305 1041 354 m 1015 865 l 1015 986 l 755 986 l 755 865 l 1015 865 m 649 865 l 649 986 l 388 986 l 388 865 l 649 865 m 1015 632 l 1015 764 l 755 764 l 755 632 l 1015 632 m 649 632 l 649 764 l 388 764 l 388 632 l 649 632 m 626 381 q 533 50 630 164 q 226 -96 436 -63 l 168 1 q 439 108 357 20 q 519 381 522 195 l 626 381 "},"超":{"x_min":46.109375,"x_max":1331.921875,"ha":1389,"o":"m 1331 82 l 1281 -30 l 677 -30 q 258 144 450 -30 q 139 -94 222 5 l 46 -35 q 154 156 115 37 q 189 524 193 275 l 290 514 q 292 442 292 479 q 279 257 292 362 q 388 164 341 193 l 388 615 l 91 615 l 91 716 l 337 716 l 337 897 l 147 897 l 147 998 l 337 998 l 337 1156 l 442 1156 l 442 998 l 648 998 l 648 897 l 442 897 l 442 716 l 697 716 l 697 662 q 814 802 775 712 q 847 992 854 892 l 689 992 l 689 1094 l 1240 1094 q 1211 811 1236 927 q 1160 672 1186 695 q 1066 649 1134 649 q 963 657 1032 649 l 920 768 q 1065 750 1017 750 q 1094 773 1084 750 q 1115 862 1104 796 q 1131 992 1127 928 l 955 992 q 775 596 945 713 l 775 592 l 1199 592 l 1199 119 l 1094 119 l 1094 180 l 832 180 l 832 116 l 726 116 l 726 554 l 693 531 l 596 602 l 617 615 l 494 615 l 494 458 l 676 458 l 676 356 l 494 356 l 494 107 q 671 70 577 70 q 861 77 692 70 q 1331 82 1030 84 m 1094 282 l 1094 491 l 832 491 l 832 282 l 1094 282 "},"ろ":{"x_min":139.03125,"x_max":1190.1875,"ha":1389,"o":"m 646 641 q 840 680 748 680 q 1086 594 982 680 q 1190 381 1190 508 q 1116 168 1190 257 q 904 31 1043 78 q 579 -15 764 -15 l 495 -13 l 448 134 q 654 119 556 119 q 951 188 840 119 q 1061 379 1061 258 q 988 509 1061 462 q 788 556 915 556 q 616 532 699 556 q 472 468 533 507 q 234 267 412 429 l 139 355 q 474 650 287 469 q 720 885 661 831 l 718 887 q 510 867 649 875 q 271 858 372 858 l 261 995 q 377 988 321 988 q 944 1055 534 988 l 965 935 q 859 860 911 903 q 738 744 808 818 l 644 644 l 646 641 "},"上":{"x_min":127.5,"x_max":1287.171875,"ha":1389,"o":"m 1287 13 l 127 13 l 127 115 l 583 115 l 583 1130 l 689 1130 l 689 727 l 1165 727 l 1165 626 l 689 626 l 689 115 l 1287 115 l 1287 13 "},"ん":{"x_min":124.78125,"x_max":1258,"ha":1389,"o":"m 1258 250 q 1046 36 1123 84 q 894 -10 968 -10 q 763 48 813 -10 q 714 200 714 107 q 739 377 714 272 q 754 469 754 440 q 694 531 754 531 q 577 495 646 531 q 452 397 507 458 q 341 222 397 336 l 238 16 l 124 69 l 641 1080 l 758 1023 l 534 602 l 537 600 q 697 657 609 657 q 831 606 779 657 q 883 478 883 556 q 863 332 883 427 q 844 193 844 240 q 860 137 844 158 q 905 116 877 116 q 1154 340 1005 116 l 1258 250 "},"あ":{"x_min":156.65625,"x_max":1204.421875,"ha":1389,"o":"m 626 672 q 777 689 677 689 q 1076 588 949 689 q 1204 335 1204 487 q 1103 96 1204 211 q 840 -83 1001 -18 l 768 35 q 1078 324 1078 160 q 1035 452 1078 394 q 922 533 992 509 q 691 156 833 273 q 726 80 703 118 l 602 27 l 583 77 q 380 19 492 19 q 221 84 286 19 q 156 250 156 149 q 250 487 156 381 q 501 645 344 593 q 499 787 499 691 l 233 755 l 218 880 l 501 914 l 511 1084 l 644 1076 q 627 931 635 1026 l 1037 980 l 1055 854 l 623 798 l 626 672 m 796 556 q 764 558 786 558 q 634 545 696 558 q 659 304 646 396 q 796 556 728 374 m 548 205 q 509 518 516 383 q 347 410 412 482 q 282 259 282 339 q 314 181 282 212 q 398 151 347 151 q 548 205 463 151 "},"涼":{"x_min":67.8125,"x_max":1338.703125,"ha":1389,"o":"m 1294 886 l 437 886 l 436 902 l 368 841 q 137 1043 298 975 l 222 1110 q 434 930 362 1052 l 437 930 l 437 987 l 800 987 l 800 1154 l 902 1154 l 902 987 l 1294 987 l 1294 886 m 384 615 l 302 541 q 67 743 232 679 l 139 815 q 384 615 290 771 m 1199 393 l 919 393 l 919 19 q 887 -49 919 -14 q 833 -84 854 -84 l 662 -84 l 626 19 l 758 21 q 800 27 787 21 q 813 62 813 34 l 813 393 l 524 393 l 524 780 l 1199 780 l 1199 393 m 1094 494 l 1094 678 l 630 678 l 630 494 l 1094 494 m 437 434 q 198 -55 370 139 l 108 -1 q 345 484 301 246 l 437 434 m 711 284 q 417 -22 619 94 l 337 56 q 630 345 554 174 q 711 284 678 315 m 1338 35 l 1249 -25 q 965 276 1163 153 l 1038 343 q 1212 213 1122 306 q 1338 35 1302 121 "},"し":{"x_min":287.546875,"x_max":1190.1875,"ha":1389,"o":"m 1190 408 q 931 90 1083 206 q 615 -25 779 -25 q 377 60 467 -25 q 287 262 287 145 l 287 1068 l 409 1068 l 409 337 q 619 95 409 95 q 850 182 727 95 q 1068 469 973 269 l 1190 408 "},"世":{"x_min":88.84375,"x_max":1300.046875,"ha":1389,"o":"m 1300 693 l 1040 693 l 1040 279 l 588 279 l 588 693 l 394 693 l 394 108 l 1227 108 l 1227 1 l 394 1 l 394 -90 l 284 -90 l 284 693 l 88 693 l 88 798 l 284 798 l 284 1040 l 394 1040 l 394 798 l 588 798 l 588 1113 l 698 1113 l 698 798 l 930 798 l 930 1118 l 1036 1118 l 1036 798 l 1300 798 l 1300 693 m 930 384 l 930 693 l 698 693 l 698 384 l 930 384 "},"ハ":{"x_min":99.6875,"x_max":1289.203125,"ha":1389,"o":"m 594 1070 q 444 439 535 699 q 216 -40 353 178 l 99 33 q 343 529 248 244 q 463 1098 438 814 l 594 1070 m 1289 29 l 1154 -5 q 1037 502 1133 214 q 807 1038 941 791 l 923 1094 q 1289 29 1209 493 "},"味":{"x_min":124.78125,"x_max":1308.1875,"ha":1389,"o":"m 1308 77 l 1230 0 q 926 547 996 212 l 926 -90 l 819 -90 l 819 531 q 483 -5 741 191 l 404 70 q 730 580 655 247 l 478 580 l 478 682 l 820 682 l 820 841 l 544 841 l 544 943 l 820 943 l 820 1152 l 926 1152 l 926 943 l 1198 943 l 1199 841 l 926 841 l 926 682 l 1266 682 l 1266 580 l 1016 580 q 1120 308 1032 460 q 1308 77 1208 156 m 450 225 l 344 225 l 344 290 l 230 290 l 230 204 l 124 204 l 124 1017 l 450 1017 l 450 225 m 344 391 l 344 916 l 230 916 l 230 391 l 344 391 "},"の":{"x_min":160.046875,"x_max":1224.78125,"ha":1389,"o":"m 744 865 q 609 257 693 465 q 419 50 524 50 q 242 182 324 50 q 160 461 160 314 q 232 739 160 624 q 438 922 305 854 q 737 991 571 991 q 1084 863 943 991 q 1224 519 1224 736 q 1122 201 1224 341 q 829 -25 1020 61 l 751 91 q 1011 267 919 147 q 1104 531 1104 387 q 1002 765 1104 672 q 744 865 901 858 m 619 852 q 385 720 480 826 q 290 473 290 615 q 335 284 290 381 q 417 187 381 187 q 522 395 455 187 q 619 852 588 604 "},"き":{"x_min":137.671875,"x_max":1141.359375,"ha":1389,"o":"m 1141 723 l 851 645 q 1013 406 889 578 l 918 343 q 620 379 737 379 q 434 342 507 379 q 360 247 360 306 q 444 124 360 171 q 673 77 528 77 q 1013 148 824 77 l 1064 22 q 670 -42 862 -42 q 354 34 473 -42 q 234 245 234 112 q 347 434 234 368 q 619 501 459 501 q 802 493 718 501 l 726 613 q 452 563 639 600 q 185 515 265 527 l 137 653 q 661 729 419 673 l 608 820 q 244 756 378 769 l 204 887 q 550 937 362 899 q 497 1083 524 990 l 626 1126 q 676 966 643 1043 q 946 1061 834 1002 l 1004 938 q 729 851 857 882 l 783 756 q 1080 848 981 800 l 1141 723 "},"東":{"x_min":69.171875,"x_max":1333.28125,"ha":1389,"o":"m 1333 77 l 1258 -21 q 750 326 893 107 l 748 323 l 748 -98 l 642 -98 l 642 323 l 640 323 q 141 -26 475 85 l 69 67 q 531 352 380 164 l 262 352 l 262 840 l 642 840 l 642 934 l 139 934 l 139 1036 l 642 1036 l 642 1154 l 748 1154 l 748 1036 l 1266 1036 l 1266 934 l 748 934 l 748 840 l 1143 840 l 1143 352 l 873 352 q 1333 77 1073 148 m 1037 646 l 1037 739 l 748 739 l 748 646 l 1037 646 m 642 646 l 642 739 l 368 739 l 368 646 l 642 646 m 1037 454 l 1037 545 l 748 545 l 748 454 l 1037 454 m 642 454 l 642 545 l 368 545 l 368 454 l 642 454 "},"と":{"x_min":226.515625,"x_max":1143.390625,"ha":1389,"o":"m 1143 25 q 836 13 967 13 q 338 92 449 13 q 226 298 226 172 q 292 485 226 396 q 470 626 358 575 q 389 1057 412 833 l 530 1076 q 588 683 533 844 q 1024 791 791 754 l 1055 658 q 662 574 831 633 q 422 441 493 514 q 352 288 352 367 q 467 172 352 208 q 769 137 583 137 q 1121 168 948 137 l 1143 25 "},"力":{"x_min":96.984375,"x_max":1198.328125,"ha":1389,"o":"m 1198 833 q 1176 461 1194 649 q 1138 175 1157 273 q 1099 42 1119 77 q 1033 -13 1079 6 q 929 -33 988 -33 q 703 12 860 -33 l 680 133 q 948 69 876 69 q 1020 126 993 69 q 1067 437 1047 183 q 1086 731 1087 690 l 737 731 q 596 225 727 413 q 176 -77 465 37 l 96 23 q 495 281 371 115 q 626 731 619 447 l 283 731 l 283 833 l 630 833 l 630 1144 l 735 1144 l 735 833 l 1198 833 "},"は":{"x_min":153.9375,"x_max":1244.4375,"ha":1389,"o":"m 1244 233 l 1162 109 q 948 229 1080 168 q 879 27 942 96 q 703 -41 817 -41 q 512 20 585 -41 q 438 174 438 81 q 526 340 438 276 q 737 404 615 404 q 828 397 793 404 l 828 691 q 441 702 581 691 l 445 834 q 744 815 568 815 q 828 817 776 815 l 828 1074 l 954 1074 l 954 826 q 1175 858 1030 830 l 1175 723 q 954 701 1085 710 l 954 370 q 1244 233 1098 321 m 820 265 q 739 278 783 278 q 615 247 668 278 q 562 172 562 217 q 602 107 562 130 q 702 83 643 83 q 789 124 762 83 q 820 265 815 165 m 454 318 q 347 -26 386 151 l 231 -26 q 153 441 153 162 q 230 1062 153 722 l 368 1024 q 279 440 279 769 q 291 218 279 314 l 294 218 q 345 358 322 307 l 454 318 "},"異":{"x_min":99.6875,"x_max":1285.8125,"ha":1389,"o":"m 1253 197 l 541 197 l 602 128 q 164 -103 455 -1 l 99 -12 q 528 194 356 55 l 528 197 l 127 197 l 127 292 l 438 292 l 438 401 l 184 401 l 184 497 l 438 497 l 438 605 l 231 605 l 231 1089 l 1150 1089 l 1150 605 l 934 605 l 934 497 l 1205 497 l 1205 401 l 934 401 l 934 292 l 1253 292 l 1253 197 m 1044 902 l 1044 987 l 740 987 l 740 902 l 1044 902 m 640 902 l 640 987 l 337 987 l 337 902 l 640 902 m 1044 698 l 1044 807 l 740 807 l 740 698 l 1044 698 m 640 698 l 640 807 l 337 807 l 337 698 l 640 698 m 829 497 l 829 605 l 544 605 l 544 497 l 829 497 m 829 292 l 829 401 l 544 401 l 544 292 l 829 292 m 1285 -8 l 1222 -103 q 776 99 1012 48 l 838 183 q 1285 -8 1035 147 "},"だ":{"x_min":123.421875,"x_max":1256.640625,"ha":1389,"o":"m 1256 933 l 1161 893 q 1094 1078 1135 1008 l 1195 1121 q 1256 933 1234 1045 m 792 800 q 526 766 614 769 q 254 9 409 278 l 123 70 q 398 758 260 222 q 205 751 296 751 l 183 887 q 425 878 259 878 q 459 1106 447 994 l 588 1078 q 556 889 580 984 q 776 923 655 899 l 792 800 m 1102 877 l 1007 837 q 939 1023 981 952 l 1041 1065 q 1102 877 1080 989 m 1151 718 l 1118 588 q 854 632 998 632 q 693 616 758 632 l 722 747 q 854 754 791 754 q 1151 718 988 754 m 1182 -13 q 919 -22 1012 -22 q 719 -12 802 -22 q 597 8 636 -2 q 533 54 558 18 q 507 127 507 90 q 576 360 507 217 l 711 330 q 629 165 629 212 q 644 131 629 143 q 728 109 659 119 q 886 99 796 99 q 1182 122 990 99 l 1182 -13 "},"ヒ":{"x_min":226.515625,"x_max":1220.703125,"ha":1389,"o":"m 1220 132 l 1201 -6 l 359 -6 q 261 36 295 -6 q 226 152 226 80 l 226 1069 l 351 1069 l 351 633 q 1089 887 802 704 l 1163 776 q 351 505 878 596 l 351 151 q 362 127 351 137 q 387 116 374 116 q 1220 132 973 116 "},"せ":{"x_min":136.3125,"x_max":1220.703125,"ha":1389,"o":"m 1220 674 l 1000 657 q 994 449 1000 514 q 968 349 988 383 q 898 291 948 314 q 791 267 849 267 q 733 270 773 267 l 708 408 q 798 393 764 393 q 862 433 851 393 q 873 645 873 474 l 463 613 q 474 254 463 354 q 539 127 484 154 q 773 99 594 99 q 1138 122 870 99 l 1123 -18 q 775 -22 974 -22 q 469 8 533 -22 q 371 125 404 39 q 339 602 339 210 l 145 588 l 136 715 l 335 730 q 340 1055 335 931 l 478 1055 q 459 743 459 889 l 873 775 l 873 821 q 859 1055 872 907 l 986 1055 q 1000 817 1000 904 l 1000 784 l 1211 800 l 1220 674 "},"な":{"x_min":111.21875,"x_max":1260.03125,"ha":1389,"o":"m 710 813 q 499 792 615 798 q 225 226 382 432 l 111 297 q 362 783 264 491 l 297 781 q 191 786 249 781 l 177 916 q 335 908 287 908 q 400 910 356 908 q 438 1110 417 964 l 566 1077 q 533 919 556 1003 q 698 946 564 920 l 710 813 m 1260 197 l 1180 75 q 962 204 1065 165 q 860 32 939 95 q 674 -30 781 -30 q 504 29 573 -30 q 434 189 434 89 q 505 336 434 280 q 694 393 576 393 q 820 379 745 393 q 792 461 818 402 q 758 585 758 543 q 868 727 758 669 q 723 763 794 743 l 750 897 q 1182 809 946 813 l 1154 683 q 955 640 1019 680 q 891 566 891 599 q 922 459 891 542 q 959 337 957 368 q 1260 197 1095 287 m 834 248 q 697 269 776 269 q 596 245 632 269 q 560 181 560 222 q 594 120 560 144 q 678 96 628 96 q 834 248 804 96 "},"来":{"x_min":67.8125,"x_max":1321.078125,"ha":1389,"o":"m 1321 79 l 1252 -4 q 741 482 915 126 l 741 -79 l 636 -79 l 636 484 q 139 1 506 147 l 67 80 q 367 259 267 169 q 528 476 467 349 l 104 476 l 104 577 l 633 577 l 633 895 l 156 895 l 156 996 l 633 996 l 633 1152 l 741 1152 l 741 996 l 1232 996 l 1232 895 l 741 895 l 741 577 l 1283 577 l 1283 476 l 855 476 q 1047 244 914 356 q 1321 79 1180 131 m 550 651 l 459 591 q 265 829 387 753 l 348 885 q 550 651 497 787 m 1119 828 q 919 591 1031 665 l 832 653 q 1034 876 944 730 l 1119 828 "},"た":{"x_min":165.46875,"x_max":1223.421875,"ha":1389,"o":"m 834 800 q 568 766 656 769 q 295 9 451 278 l 165 70 q 440 758 302 222 q 247 751 337 751 l 225 887 q 466 878 301 878 q 501 1106 489 994 l 630 1078 q 598 889 622 984 q 817 923 697 899 l 834 800 m 1192 718 l 1159 588 q 895 632 1040 632 q 734 616 800 632 l 763 747 q 895 754 832 754 q 1192 718 1030 754 m 1223 -13 q 960 -22 1054 -22 q 760 -12 843 -22 q 639 8 678 -2 q 574 54 600 18 q 548 127 548 90 q 617 360 548 217 l 752 330 q 670 165 670 212 q 686 131 670 143 q 770 109 701 119 q 927 99 838 99 q 1223 122 1032 99 l 1223 -13 "},"。":{"x_min":119.359375,"x_max":518.125,"ha":1389,"o":"m 318 326 q 459 267 400 326 q 518 124 518 208 q 459 -16 518 42 q 319 -75 401 -75 q 178 -16 236 -75 q 119 124 119 42 q 177 267 119 208 q 318 326 236 326 m 318 9 q 400 43 366 9 q 434 126 434 77 q 400 207 434 174 q 318 241 366 241 q 237 207 271 241 q 203 126 203 174 q 237 43 203 77 q 318 9 270 9 "},"宮":{"x_min":136.3125,"x_max":1252.578125,"ha":1389,"o":"m 1252 743 l 1147 743 l 1147 914 l 242 914 l 242 733 l 136 733 l 136 1016 l 641 1016 l 641 1151 l 747 1151 l 747 1016 l 1252 1016 l 1252 743 m 1138 -94 l 1033 -94 l 1033 -9 l 355 -9 l 355 -94 l 250 -94 l 250 354 l 605 354 q 630 466 617 379 l 319 466 l 319 817 l 1058 817 l 1058 466 l 737 466 q 711 354 713 357 l 1138 354 l 1138 -94 m 952 568 l 952 716 l 425 716 l 425 568 l 952 568 m 1033 91 l 1033 252 l 355 252 l 355 91 l 1033 91 "},"こ":{"x_min":226.515625,"x_max":1190.1875,"ha":1389,"o":"m 1047 938 l 1026 805 q 497 868 798 868 q 323 859 400 868 l 333 992 l 453 994 q 1047 938 741 994 m 1190 40 q 694 9 852 9 q 328 62 429 9 q 226 234 226 115 q 365 505 226 330 l 487 437 q 349 226 349 297 q 686 136 349 136 q 1166 174 856 136 l 1190 40 "}," ":{"x_min":0,"x_max":0,"ha":386},"未":{"x_min":90.203125,"x_max":1317,"ha":1389,"o":"m 1317 120 l 1253 33 q 762 533 895 202 l 762 -92 l 657 -90 l 657 522 q 160 37 486 228 l 90 123 q 540 540 396 300 l 168 540 l 168 641 l 651 641 l 651 854 l 258 854 l 258 955 l 651 955 l 651 1163 l 762 1163 l 762 955 l 1151 955 l 1151 854 l 762 854 l 762 641 l 1247 641 l 1247 540 l 865 540 q 1317 120 1001 273 "},"以":{"x_min":91.546875,"x_max":1312.25,"ha":1389,"o":"m 1312 31 l 1222 -42 q 929 286 1104 158 q 515 -71 776 79 l 448 26 q 724 223 606 107 q 903 481 841 340 q 974 747 965 622 q 983 1113 983 872 l 1097 1113 l 1091 812 q 984 380 1087 564 q 1312 31 1183 246 m 712 389 q 160 86 585 312 l 91 183 l 265 271 l 265 1068 l 377 1068 l 377 331 l 712 512 l 712 389 m 823 750 l 748 658 q 455 877 641 798 l 528 954 q 823 750 686 899 "},"り":{"x_min":267.875,"x_max":1078.96875,"ha":1389,"o":"m 1062 1069 q 1078 691 1078 838 q 995 159 1078 330 q 744 -112 912 -11 l 654 -8 q 846 170 780 63 q 932 402 911 277 q 952 697 952 528 q 930 1061 952 917 l 1062 1069 m 585 625 q 437 185 472 410 l 345 185 q 290 477 313 311 q 267 747 267 644 q 291 1038 267 932 l 417 1013 q 391 747 391 905 q 406 511 391 649 l 409 511 q 488 684 446 621 l 585 625 "},"ル":{"x_min":86.125,"x_max":1300.046875,"ha":1389,"o":"m 1300 348 q 737 -59 1052 -1 l 737 1094 l 862 1094 l 862 108 q 1041 239 939 134 q 1204 453 1143 343 l 1300 348 m 533 646 q 190 -62 533 263 l 86 31 q 319 299 230 149 q 408 720 408 450 l 408 1094 l 533 1094 l 533 646 "},"に":{"x_min":181.75,"x_max":1215.28125,"ha":1389,"o":"m 505 337 q 384 -10 431 172 l 292 -10 q 181 508 181 200 q 258 1081 181 766 l 393 1038 q 304 503 304 760 q 331 227 304 329 l 335 227 q 397 370 368 320 l 505 337 m 1131 959 l 1115 830 q 870 847 1026 847 q 575 819 741 847 l 559 950 q 868 971 763 971 q 1131 959 1046 971 m 1215 179 l 1184 38 q 868 23 990 23 q 594 56 665 23 q 522 205 522 90 q 537 327 522 263 l 668 299 q 645 205 645 233 q 680 159 645 172 q 829 145 714 145 q 1215 179 920 145 "},"間":{"x_min":173.609375,"x_max":1239.015625,"ha":1389,"o":"m 1239 1089 l 1239 73 q 1206 -22 1239 19 q 1134 -66 1174 -65 l 992 -71 l 950 38 q 1064 29 1042 29 q 1112 49 1091 29 q 1134 98 1134 70 l 1134 646 l 760 646 l 760 1089 l 1239 1089 m 1134 920 l 1134 987 l 866 987 l 866 920 l 1134 920 m 1134 748 l 1134 819 l 866 819 l 866 748 l 1134 748 m 654 646 l 279 646 l 279 -91 l 173 -91 l 173 1089 l 654 1089 l 654 646 m 548 920 l 548 987 l 279 987 l 279 920 l 548 920 m 548 748 l 548 819 l 279 819 l 279 748 l 548 748 m 980 98 l 434 98 l 434 577 l 980 577 l 980 98 m 874 391 l 874 476 l 540 476 l 540 391 l 874 391 m 874 200 l 874 290 l 540 290 l 540 200 l 874 200 "}}}
